<svg width="28" height="38" viewBox="0 0 28 38" fill="none" xmlns="http://www.w3.org/2000/svg">
<path d="M15.52 15.624C19.872 16.392 23.0293 17.608 24.992 19.272C26.9547 20.8933 27.936 23.3893 27.936 26.76C27.936 28.808 27.4667 30.664 26.528 32.328C25.5893 33.9493 24.224 35.2507 22.432 36.232C20.64 37.1707 18.528 37.64 16.096 37.64C13.8347 37.64 11.744 37.2133 9.824 36.36C7.904 35.5067 6.38933 34.312 5.28 32.776V37H0.288V24.712H4.832C5.25867 27.272 6.41067 29.3413 8.288 30.92C10.1653 32.4987 12.5547 33.288 15.456 33.288C17.4613 33.288 19.0187 32.8187 20.128 31.88C21.2373 30.9413 21.792 29.5973 21.792 27.848C21.792 26.4827 21.536 25.416 21.024 24.648C20.512 23.8373 19.7013 23.1973 18.592 22.728C17.4827 22.2587 15.904 21.8533 13.856 21.512L11.616 21.064C3.89333 19.6987 0.0320001 16.072 0.0320001 10.184C0.0320001 7.02666 1.07733 4.552 3.168 2.76C5.30133 0.925332 8.13867 0.00799942 11.68 0.00799942C13.728 0.00799942 15.584 0.349332 17.248 1.032C18.9547 1.71467 20.3413 2.696 21.408 3.976V0.711998H26.208V11.08H21.792C20.64 6.6 17.568 4.36 12.576 4.36C10.6133 4.36 9.07733 4.82933 7.968 5.768C6.90133 6.664 6.368 7.88 6.368 9.416C6.368 11.0373 6.96533 12.3173 8.16 13.256C9.39733 14.152 11.296 14.8347 13.856 15.304L15.52 15.624Z" fill="#55B059"/>
</svg>
